<svg xmlns="http://www.w3.org/2000/svg" viewBox="0 0 128 128" role="img" aria-label="Cabo Marlin Ops favicon">
  <defs>
    <linearGradient id="marlinGradient" x1="0%" y1="0%" x2="100%" y2="100%">
      <stop offset="0%" stop-color="#5eead4" />
      <stop offset="55%" stop-color="#38bdf8" />
      <stop offset="100%" stop-color="#0ea5e9" />
    </linearGradient>
  </defs>
  <path
    fill="url(#marlinGradient)"
    d="M12 85c13 2 27-2 40-13 11-9 19-22 35-31 11-6 23-8 34-6-10 4-17 9-22 15 8 0 15 2 22 7-6 1-11 3-15 6-5 4-9 10-15 15-9 8-20 14-31 16-16 3-33-1-48-9z"
  />
  <path
    fill="#e2f6ff"
    d="M99 49c2 0 4 2 4 4s-2 4-4 4-4-2-4-4 2-4 4-4z"
  />
  <path
    fill="#0f172a"
    opacity="0.24"
    d="M23 86c13 0 25-3 35-10 9-6 15-15 23-23-1 9-5 17-12 23-8 8-18 13-30 15-6 1-11 0-16-1z"
  />
</svg>
