<svg xmlns="http://www.w3.org/2000/svg" width="1200" height="630" viewBox="0 0 1200 630" role="img" aria-label="Cabo Marlin Ops preview card">
  <defs>
    <linearGradient id="bg" x1="0" y1="0" x2="1" y2="1">
      <stop offset="0%" stop-color="#041820"/>
      <stop offset="45%" stop-color="#0b2f3d"/>
      <stop offset="100%" stop-color="#123e57"/>
    </linearGradient>
    <linearGradient id="accent" x1="0" y1="0" x2="1" y2="1">
      <stop offset="0%" stop-color="#5eead4"/>
      <stop offset="55%" stop-color="#38bdf8"/>
      <stop offset="100%" stop-color="#0ea5e9"/>
    </linearGradient>
    <filter id="softGlow" x="-20%" y="-20%" width="140%" height="140%">
      <feGaussianBlur stdDeviation="24"/>
    </filter>
  </defs>

  <rect width="1200" height="630" fill="url(#bg)"/>

  <circle cx="1020" cy="120" r="160" fill="#22d3ee" opacity="0.16" filter="url(#softGlow)"/>
  <circle cx="210" cy="530" r="190" fill="#34d399" opacity="0.14" filter="url(#softGlow)"/>

  <path d="M0 532c155-20 308-6 455 27 152 34 289 50 430 42 138-8 243-40 315-71v100H0z" fill="#0a2432" opacity="0.72"/>
  <path d="M0 565c165-24 321-17 470 14 165 35 307 43 460 21 119-17 212-47 270-73v103H0z" fill="#0d3244" opacity="0.78"/>

  <g transform="translate(130 120)">
    <path
      fill="url(#accent)"
      d="M42 258c44 7 90-7 132-31 47-27 83-73 142-102 48-23 95-28 138-22-40 13-70 33-90 57 34-3 66 2 96 17-27 5-49 14-65 27-20 16-34 38-56 56-35 29-79 50-126 56-63 8-128-8-171-32z"
    />
    <circle cx="350" cy="199" r="10" fill="#e2f6ff"/>
    <path d="M74 262c43 4 84-8 119-28 33-20 56-52 89-80-5 31-20 60-43 83-31 31-72 50-118 54-17 2-33 0-47-5z" fill="#0f172a" opacity="0.22"/>
  </g>

  <text x="130" y="120" fill="#67e8f9" font-size="28" font-family="'Trebuchet MS', 'Avenir Next', 'Segoe UI', sans-serif" letter-spacing="3">CABO FISHING INTEL</text>
  <text x="130" y="228" fill="#f8fafc" font-size="92" font-family="'Trebuchet MS', 'Avenir Next', 'Segoe UI', sans-serif" font-weight="700">Cabo Marlin Ops</text>
  <text x="130" y="288" fill="#cbd5e1" font-size="34" font-family="'Trebuchet MS', 'Avenir Next', 'Segoe UI', sans-serif">Conditions. Bite signal. Charter decisions.</text>

  <g transform="translate(130 430)">
    <rect x="0" y="0" width="920" height="92" rx="18" fill="#0f172a" opacity="0.56"/>
    <text x="32" y="56" fill="#e2e8f0" font-size="30" font-family="'Trebuchet MS', 'Avenir Next', 'Segoe UI', sans-serif">Trip window: Mar 20–23, 2026  •  Fishing days: Mar 21–22</text>
  </g>
</svg>
